<svg width="125" height="130" viewBox="0 0 125 130" fill="none" xmlns="http://www.w3.org/2000/svg">
<g id="Arrow 01">
<path id="Vector" d="M14.0324 37.648C31.4677 25.9998 51.3948 19.3485 71.7712 26.0723C90.1632 32.1415 101.057 48.6823 87.4119 67.6772C80.9527 76.669 67.9169 82.504 58.2318 76.6618C47.4418 70.1532 57.0011 55.7082 64.3443 51.7896C81.495 42.637 104.622 48.5669 115.069 68.7021C127.441 92.5468 103.791 102.809 103.785 102.621" stroke="black" stroke-width="3.37884" stroke-miterlimit="1.5" stroke-linecap="round" stroke-linejoin="round"/>
<path id="Vector_2" d="M18.9849 12.9658C19.4627 15.4195 18.9809 17.8242 18.6103 20.2513C17.3942 28.2209 13.8051 36.3698 7.88648 41.3209C15.4773 38.469 26.1924 37.6262 32.6203 43.6965" stroke="black" stroke-width="3.37884" stroke-miterlimit="1.5" stroke-linecap="round" stroke-linejoin="round"/>
</g>
</svg>
