<svg width="78" height="14" viewBox="0 0 78 14" fill="none" xmlns="http://www.w3.org/2000/svg">
<g id="Star" opacity="0.8">
<g id="Icon/Solid/star">
<path id="Icon" d="M6.06603 1.40134C6.32325 0.609708 7.4432 0.609708 7.70042 1.40134L8.61944 4.22982C8.73448 4.58385 9.06439 4.82355 9.43664 4.82355H12.4107C13.243 4.82355 13.5891 5.88869 12.9157 6.37794L10.5097 8.12604C10.2085 8.34484 10.0825 8.73268 10.1975 9.08671L11.1166 11.9152C11.3738 12.7068 10.4677 13.3651 9.79432 12.8759L7.38828 11.1278C7.08712 10.909 6.67932 10.909 6.37817 11.1278L3.97212 12.8759C3.29872 13.3651 2.39266 12.7068 2.64987 11.9152L3.5689 9.08671C3.68393 8.73268 3.55792 8.34484 3.25676 8.12604L0.850715 6.37794C0.17731 5.88869 0.523395 4.82355 1.35577 4.82355H4.3298C4.70205 4.82355 5.03197 4.58385 5.147 4.22982L6.06603 1.40134Z" fill="#F59E0B"/>
</g>
<g id="Icon/Solid/star_2">
<path id="Icon_2" d="M22.0453 1.40134C22.3025 0.609708 23.4224 0.609708 23.6797 1.40134L24.5987 4.22982C24.7137 4.58385 25.0436 4.82355 25.4159 4.82355H28.3899C29.2223 4.82355 29.5684 5.88869 28.895 6.37794L26.4889 8.12604C26.1878 8.34484 26.0618 8.73268 26.1768 9.08671L27.0958 11.9152C27.353 12.7068 26.447 13.3651 25.7736 12.8759L23.3675 11.1278C23.0664 10.909 22.6586 10.909 22.3574 11.1278L19.9514 12.8759C19.278 13.3651 18.3719 12.7068 18.6291 11.9152L19.5481 9.08671C19.6632 8.73268 19.5372 8.34484 19.236 8.12604L16.83 6.37794C16.1566 5.88869 16.5026 4.82355 17.335 4.82355H20.3091C20.6813 4.82355 21.0112 4.58385 21.1262 4.22982L22.0453 1.40134Z" fill="#F59E0B"/>
</g>
<g id="Icon/Solid/star_3">
<path id="Icon_3" d="M38.0235 1.40134C38.2808 0.609708 39.4007 0.609708 39.6579 1.40134L40.577 4.22982C40.692 4.58385 41.0219 4.82355 41.3942 4.82355H44.3682C45.2006 4.82355 45.5467 5.88869 44.8732 6.37794L42.4672 8.12604C42.166 8.34484 42.04 8.73268 42.1551 9.08671L43.0741 11.9152C43.3313 12.7068 42.4252 13.3651 41.7518 12.8759L39.3458 11.1278C39.0446 10.909 38.6368 10.909 38.3357 11.1278L35.9296 12.8759C35.2562 13.3651 34.3502 12.7068 34.6074 11.9152L35.5264 9.08671C35.6415 8.73268 35.5154 8.34484 35.2143 8.12604L32.8082 6.37794C32.1348 5.88869 32.4809 4.82355 33.3133 4.82355H36.2873C36.6596 4.82355 36.9895 4.58385 37.1045 4.22982L38.0235 1.40134Z" fill="#F59E0B"/>
</g>
<g id="Icon/Solid/star_4">
<path id="Icon_4" d="M54.004 1.40134C54.2612 0.609708 55.3812 0.609708 55.6384 1.40134L56.5574 4.22982C56.6725 4.58385 57.0024 4.82355 57.3746 4.82355H60.3487C61.181 4.82355 61.5271 5.88869 60.8537 6.37794L58.4477 8.12604C58.1465 8.34484 58.0205 8.73268 58.1355 9.08671L59.0546 11.9152C59.3118 12.7068 58.4057 13.3651 57.7323 12.8759L55.3263 11.1278C55.0251 10.909 54.6173 10.909 54.3162 11.1278L51.9101 12.8759C51.2367 13.3651 50.3306 12.7068 50.5879 11.9152L51.5069 9.08671C51.6219 8.73268 51.4959 8.34484 51.1947 8.12604L48.7887 6.37794C48.1153 5.88869 48.4614 4.82355 49.2938 4.82355H52.2678C52.64 4.82355 52.97 4.58385 53.085 4.22982L54.004 1.40134Z" fill="#F59E0B"/>
</g>
<g id="Icon/Solid/star_5">
<path id="Icon_5" d="M69.9833 1.40134C70.2405 0.609708 71.3604 0.609708 71.6177 1.40134L72.5367 4.22982C72.6517 4.58385 72.9816 4.82355 73.3539 4.82355H76.3279C77.1603 4.82355 77.5064 5.88869 76.833 6.37794L74.4269 8.12604C74.1258 8.34484 73.9997 8.73268 74.1148 9.08671L75.0338 11.9152C75.291 12.7068 74.385 13.3651 73.7116 12.8759L71.3055 11.1278C71.0044 10.909 70.5966 10.909 70.2954 11.1278L67.8894 12.8759C67.216 13.3651 66.3099 12.7068 66.5671 11.9152L67.4861 9.08671C67.6012 8.73268 67.4752 8.34484 67.174 8.12604L64.768 6.37794C64.0945 5.88869 64.4406 4.82355 65.273 4.82355H68.247C68.6193 4.82355 68.9492 4.58385 69.0642 4.22982L69.9833 1.40134Z" fill="#F59E0B"/>
</g>
</g>
</svg>
